# Blender v2.92.0 OBJ File: 'bighouse.blend'
# www.blender.org
mtllib smallhouse.mtl
o Cube_Cube.001
v -1.000000 -1.000000 1.000000
v -1.000000 1.000000 1.000000
v -1.000000 -1.000000 -1.000000
v -1.000000 1.000000 -1.000000
v 1.000000 -1.000000 1.000000
v 1.000000 1.000000 1.000000
v 1.000000 -1.000000 -1.000000
v 1.000000 1.000000 -1.000000
v -1.915782 1.000000 1.915782
v -1.915782 1.000000 -1.915782
v 1.915782 1.000000 -1.915782
v 1.915782 1.000000 1.915782
v 0.000000 2.077392 0.000000
v -1.000000 -0.311893 1.000000
v -1.000000 -0.311893 -1.000000
v 1.000000 -0.311893 -1.000000
v 1.000000 -0.311893 1.000000
v -1.000000 0.473184 1.000000
v -1.000000 0.473184 -1.000000
v 1.000000 0.473184 -1.000000
v 1.000000 0.473184 1.000000
v -1.000000 -1.000000 0.007650
v -1.000000 1.000000 0.007650
v 1.000000 -1.000000 0.007650
v 1.000000 1.000000 0.007650
v -1.915782 1.000000 0.014655
v 1.915782 1.000000 0.014655
v 1.000000 -0.311893 0.007650
v -1.000000 -0.311893 0.007650
v 1.000000 0.473184 0.007650
v -1.000000 0.473184 0.007650
v -1.000000 1.000000 -0.736396
v 1.000000 -1.000000 -0.736396
v -1.915782 1.000000 -1.410775
v -0.501173 1.795544 0.501173
v 0.501173 1.795544 0.501173
v -1.000000 -0.311893 -0.736396
v -1.000000 0.473184 -0.736396
v -1.000000 -1.000000 -0.736396
v 1.000000 1.000000 -0.736396
v 1.915782 1.000000 -1.410775
v 1.000000 -0.311893 -0.736396
v 1.000000 0.473184 -0.736396
v 0.174831 -1.000000 -1.000000
v -0.491836 -1.000000 -1.000000
v -0.491836 1.000000 -1.000000
v 0.174831 1.000000 -1.000000
v -0.491836 -1.000000 1.000000
v 0.174831 -1.000000 1.000000
v 0.174831 1.000000 1.000000
v -0.491836 1.000000 1.000000
v -0.942250 1.000000 -1.915782
v 0.334937 1.000000 -1.915782
v 0.334937 1.000000 1.915782
v -0.942251 1.000000 1.915782
v 0.174831 -0.311893 1.000000
v -0.491836 -0.311893 1.000000
v -0.491836 -0.311893 -1.000000
v 0.174831 -0.311893 -1.000000
v 0.174831 0.473184 1.000000
v -0.491836 0.473184 1.000000
v -0.491836 0.473184 -1.000000
v 0.174831 0.473184 -1.000000
v 0.174831 -1.000000 0.007650
v -0.491836 -1.000000 0.007650
v 0.174831 -1.000000 -0.736396
v -0.491836 -1.000000 -0.736396
v 0.087620 1.795544 0.501173
v -0.246495 1.795544 0.501173
v 0.174831 -0.311893 0.900033
v -0.491836 -0.311893 0.900033
v 0.174831 0.473184 0.900033
v -0.491836 0.473184 0.900033
v 1.057729 -0.311893 -0.736396
v 1.057729 -0.311893 0.007650
v 1.057729 0.473184 -0.736396
v 1.057729 0.473184 0.007650
v 1.057729 -1.000000 0.007650
v 1.057729 -1.000000 -0.736396
vt 0.559148 0.217050
vt 0.625000 0.217050
vt 0.625000 0.250000
vt 0.559148 0.250000
vt 0.559148 0.396854
vt 0.625000 0.396854
vt 0.625000 0.500000
vt 0.559148 0.500000
vt 0.559148 0.625956
vt 0.625000 0.625956
vt 0.625000 0.750000
vt 0.559148 0.750000
vt 0.559148 0.936479
vt 0.625000 0.936479
vt 0.625000 1.000000
vt 0.559148 1.000000
vt 0.271854 0.625956
vt 0.375000 0.625956
vt 0.375000 0.750000
vt 0.271854 0.750000
vt 0.375000 0.936479
vt 0.461013 0.936479
vt 0.461013 1.000000
vt 0.375000 1.000000
vt 0.461013 0.625956
vt 0.461013 0.750000
vt 0.375000 0.396854
vt 0.461013 0.396854
vt 0.461013 0.500000
vt 0.375000 0.500000
vt 0.375000 0.217050
vt 0.461013 0.217050
vt 0.461013 0.250000
vt 0.375000 0.250000
vt 0.461013 0.000000
vt 0.559148 0.000000
vt 0.559148 0.124044
vt 0.461013 0.124044
vt 0.375000 0.625956
vt 0.461013 0.625956
vt 0.375000 0.000000
vt 0.375000 0.124044
vt 0.461013 0.532951
vt 0.559148 0.532951
vt 0.559148 0.532951
vt 0.461013 0.532951
vt 0.271854 0.532951
vt 0.375000 0.532951
vt 0.625000 0.532951
vt 0.625000 0.000000
vt 0.625000 0.124044
vt 0.271854 0.500000
vt 0.125000 0.500000
vt 0.188520 0.500000
vt 0.188520 0.532951
vt 0.125000 0.532951
vt 0.188520 0.625956
vt 0.125000 0.625956
vt 0.559148 0.313520
vt 0.461013 0.313520
vt 0.559148 0.853146
vt 0.461013 0.853146
vt 0.559148 0.853146
vt 0.461013 0.853146
vt 0.375000 0.313520
vt 0.375000 0.853146
vt 0.188520 0.750000
vt 0.125000 0.750000
vt 0.625000 0.853146
vt 0.625000 0.313520
vt 0.559148 0.936479
vt 0.461013 0.936479
vt 0.559148 0.625956
vt 0.375000 0.532951
vt 0.625000 0.000000
vt 0.625000 0.124044
vt 0.625000 1.000000
vt 0.625000 0.983383
vt 0.625000 0.961583
vt 0.625000 0.934599
vt 0.625000 1.000000
vt 0.625000 0.750000
vt 0.625000 0.853146
vt 0.625000 0.250000
vt 0.625000 0.313520
vt 0.625000 0.500000
vt 0.625000 0.532950
vt 0.625000 0.396854
vt 0.625000 0.500000
vt 0.625000 0.750000
vt 0.625000 0.750000
vt 0.625000 0.217050
vt 0.625000 0.184599
vt 0.625000 0.625956
vt 0.625000 0.250000
vt 0.625000 1.000000
vt 0.625000 0.936479
vn -1.0000 0.0000 0.0000
vn 0.0000 0.0000 -1.0000
vn 1.0000 0.0000 0.0000
vn 0.0000 0.0000 1.0000
vn 0.0000 -1.0000 0.0000
vn 0.0000 1.0000 0.0000
vn 0.0000 0.8716 0.4902
vn 0.0000 0.8716 -0.4902
vn 0.4902 0.8716 0.0000
vn -0.4902 0.8716 0.0000
usemtl Material.002
s off
f 38/1/1 32/2/1 4/3/1 19/4/1
f 63/5/2 47/6/2 8/7/2 20/8/2
f 30/9/3 25/10/3 6/11/3 21/12/3
f 61/13/4 51/14/4 2/15/4 18/16/4
f 64/17/5 24/18/5 5/19/5 49/20/5
f 48/21/4 57/22/4 14/23/4 1/24/4
f 24/18/3 28/25/3 17/26/3 5/19/3
f 44/27/2 59/28/2 16/29/2 7/30/2
f 39/31/1 37/32/1 15/33/1 3/34/1
f 57/22/4 61/13/4 18/16/4 14/23/4
f 28/25/3 30/9/3 21/12/3 17/26/3
f 59/28/2 63/5/2 20/8/2 16/29/2
f 37/32/1 38/1/1 19/4/1 15/33/1
f 14/35/1 18/36/1 31/37/1 29/38/1
f 28/25/4 24/18/4 78/39/4 75/40/4
f 1/41/1 14/35/1 29/38/1 22/42/1
f 42/43/2 43/44/2 76/45/2 74/46/2
f 66/47/5 33/48/5 24/18/5 64/17/5
f 43/44/3 40/49/3 25/10/3 30/9/3
f 18/36/1 2/50/1 23/51/1 31/37/1
f 20/8/3 8/7/3 40/49/3 43/44/3
f 44/52/5 7/30/5 33/48/5 66/47/5
f 7/30/3 16/29/3 42/43/3 33/48/3
f 16/29/3 20/8/3 43/44/3 42/43/3
f 29/38/1 31/37/1 38/1/1 37/32/1
f 22/42/1 29/38/1 37/32/1 39/31/1
f 31/37/1 23/51/1 32/2/1 38/1/1
f 3/53/5 45/54/5 67/55/5 39/56/5
f 45/54/5 44/52/5 66/47/5 67/55/5
f 39/56/5 67/55/5 65/57/5 22/58/5
f 67/55/5 66/47/5 64/17/5 65/57/5
f 15/33/2 19/4/2 62/59/2 58/60/2
f 58/60/2 62/59/2 63/5/2 59/28/2
f 17/26/4 21/12/4 60/61/4 56/62/4
f 56/62/1 60/61/1 72/63/1 70/64/1
f 3/34/2 15/33/2 58/60/2 45/65/2
f 45/65/2 58/60/2 59/28/2 44/27/2
f 5/19/4 17/26/4 56/62/4 49/66/4
f 49/66/4 56/62/4 57/22/4 48/21/4
f 22/58/5 65/57/5 48/67/5 1/68/5
f 65/57/5 64/17/5 49/20/5 48/67/5
f 21/12/4 6/11/4 50/69/4 60/61/4
f 60/61/4 50/69/4 51/14/4 61/13/4
f 19/4/2 4/3/2 46/70/2 62/59/2
f 62/59/2 46/70/2 47/6/2 63/5/2
f 60/61/5 61/13/5 73/71/5 72/63/5
f 57/22/6 56/62/6 70/64/6 71/72/6
f 61/13/3 57/22/3 71/72/3 73/71/3
f 30/9/4 28/25/4 75/40/4 77/73/4
f 24/18/5 33/48/5 79/74/5 78/39/5
f 33/48/2 42/43/2 74/46/2 79/74/2
f 43/44/6 30/9/6 77/73/6 76/45/6
usemtl Material.003
f 23/51/5 2/50/5 9/75/5 26/76/5
f 35/77/7 69/78/7 68/79/7 36/80/7 13/81/7
f 50/69/5 6/11/5 12/82/5 54/83/5
f 46/70/5 4/3/5 10/84/5 52/85/5
f 40/49/5 8/7/5 11/86/5 41/87/5
f 11/86/8 53/88/8 52/85/8 10/84/8 13/89/8
f 36/90/9 41/87/9 11/86/9 13/91/9
f 34/92/10 26/76/10 9/75/10 35/93/10
f 6/11/5 25/10/5 27/94/5 12/82/5
f 32/2/5 23/51/5 26/76/5 34/92/5
f 4/3/5 32/2/5 34/92/5 10/84/5
f 10/84/10 34/92/10 35/93/10 13/95/10
f 12/82/9 27/94/9 41/87/9 36/90/9
f 25/10/5 40/49/5 41/87/5 27/94/5
f 54/83/7 12/82/7 36/80/7 68/79/7
f 9/96/7 55/97/7 69/78/7 35/77/7
f 55/97/7 54/83/7 68/79/7 69/78/7
f 8/7/5 47/6/5 53/88/5 11/86/5
f 47/6/5 46/70/5 52/85/5 53/88/5
f 2/15/5 51/14/5 55/97/5 9/96/5
f 51/14/5 50/69/5 54/83/5 55/97/5
usemtl Material.004
f 74/46/3 76/45/3 77/73/3 75/40/3
f 79/74/3 74/46/3 75/40/3 78/39/3
usemtl Material.001
f 70/64/4 72/63/4 73/71/4 71/72/4
